<svg width="189" height="37" viewBox="0 0 189 37" fill="none" xmlns="http://www.w3.org/2000/svg">
<circle cx="18.1572" cy="18.1572" r="18.1572" fill="#35540D"/>
<g clip-path="url(#clip0)">
<path d="M19.54 23.5435C18.0727 23.5435 16.6055 23.5435 15.1244 23.5435C14.6676 23.5435 14.6538 23.5577 14.7507 24.027C15.1659 26.3452 17.3945 27.8386 19.6784 27.2554C20.3982 27.0706 21.0903 26.7008 21.7547 26.3595C22.3914 26.0323 22.4606 26.0181 22.8759 26.6012C23.1389 26.9568 23.388 27.3266 23.651 27.6821C23.9417 28.0803 23.914 28.2794 23.5403 28.6208C22.7652 29.3034 21.8654 29.7443 20.8965 30.0145C19.1386 30.5123 17.3668 30.555 15.6642 29.787C13.3941 28.7488 12.1207 26.8715 11.6916 24.3968C11.1933 21.5524 11.9684 19.0635 13.9617 17.0013C15.2628 15.6644 16.5778 14.3418 17.8928 13.0191C18.2527 12.6636 18.4465 12.6636 18.7925 13.0191C20.0521 14.2707 21.3118 15.508 22.5575 16.7595C23.6926 17.9115 24.5231 19.2626 24.703 20.9408C24.7722 21.5524 24.7584 22.1924 24.7307 22.8181C24.703 23.3586 24.4677 23.5435 23.9417 23.5435C22.4745 23.5435 21.0072 23.5435 19.54 23.5435ZM21.6024 21.2964C21.4779 20.1159 20.9795 19.22 20.0383 18.6226C18.834 17.8688 17.6159 17.9826 16.4532 18.708C15.5397 19.2911 15.0275 20.1586 14.8614 21.2964C17.1315 21.2964 19.3462 21.2964 21.6024 21.2964Z" fill="white"/>
</g>
<path d="M22.0877 7.0988C22.0374 7.10549 21.8866 7.12348 21.6958 7.14508C21.5635 7.16 21.4344 7.17183 21.3476 7.17903C21.1754 6.83961 20.8703 6.60254 20.4889 6.60254C20.1891 6.60254 19.9452 6.70333 19.7407 6.98052C19.569 7.21297 19.4575 7.53386 19.3489 7.701C18.4636 9.06122 17.0522 9.29881 15.3979 9.29881C15.0165 9.29881 14.6469 9.24789 14.2901 9.15893C14.2327 9.14453 14.1763 9.20727 14.2024 9.26486C14.8718 10.732 16.4672 11.7925 17.7634 12.0249V13.6453H18.141V12.0676C18.1785 12.0696 18.2169 12.0738 18.2539 12.0743C18.4873 12.0758 18.6975 12.0558 18.8968 12.0239V13.6453H19.2744V11.9395C19.8859 11.759 20.3395 11.3996 20.7323 10.8817C21.2058 10.2574 21.4823 9.14761 21.499 8.06767C21.5606 7.99927 21.7034 7.83728 21.7993 7.69791C22.0194 7.37702 22.1921 7.0844 22.0877 7.0988ZM20.5828 7.82082C20.4206 7.82082 20.2892 7.67837 20.2892 7.50249C20.2892 7.32662 20.4206 7.18417 20.5828 7.18417C20.7451 7.18417 20.8765 7.32662 20.8765 7.50249C20.8765 7.67837 20.7451 7.82082 20.5828 7.82082Z" fill="white"/>
<g clip-path="url(#clip1)">
<path d="M122.16 7.90193C123.008 7.90193 123.798 7.90193 124.676 7.90193C124.706 8.31163 124.735 8.69207 124.764 9.07251C127.369 7.02399 129.125 7.05325 130.998 9.21883C131.202 9.04324 131.378 8.86766 131.583 8.69207C132.636 7.72634 133.865 7.43369 135.241 7.66781C136.704 7.90193 137.816 8.92618 137.875 10.4479C137.992 12.9647 137.904 15.4522 137.904 18.0275C137.055 18.0275 136.207 18.0275 135.299 18.0275C135.27 17.7933 135.241 17.53 135.241 17.2666C135.241 15.657 135.241 14.0767 135.241 12.4672C135.241 12.116 135.212 11.7356 135.182 11.3844C135.065 10.4772 134.656 9.97971 133.924 9.80412C133.075 9.62853 132.256 9.92118 131.875 10.6821C131.612 11.2381 131.466 11.9112 131.437 12.555C131.378 14.106 131.407 15.657 131.407 17.208C131.407 17.4714 131.407 17.7348 131.407 18.0275C130.471 18.0275 129.651 18.0275 128.715 18.0275C128.715 17.53 128.715 17.0325 128.715 16.5642C128.715 14.9839 128.744 13.4329 128.715 11.8526C128.686 10.5065 128.13 9.83338 127.076 9.77486C125.993 9.71633 125.115 10.4479 124.998 11.6771C124.881 12.7891 124.911 13.9597 124.911 15.0717C124.911 16.0375 124.911 17.0032 124.911 17.9982C124.003 17.9982 123.155 17.9982 122.247 17.9982C122.16 14.6913 122.16 11.3551 122.16 7.90193Z" fill="#162B2C"/>
<path d="M46.2183 4.30225C49.5837 4.30225 52.9198 4.30225 56.3145 4.30225C56.3145 5.03386 56.3145 5.73621 56.3145 6.55562C53.9441 6.55562 51.5737 6.55562 49.174 6.55562C49.174 7.6384 49.174 8.66266 49.174 9.71618C51.4273 9.71618 53.6807 9.71618 55.9634 9.71618C55.9634 10.4771 55.9634 11.1501 55.9634 11.9403C53.71 11.9403 51.4566 11.9403 49.174 11.9403C49.174 13.2279 49.174 14.4278 49.174 15.7154C51.5737 15.7154 53.9441 15.7154 56.3438 15.7154C56.3438 16.5348 56.3438 17.2372 56.3438 18.0273C53.0076 18.0273 49.6422 18.0273 46.2475 18.0273C46.2183 13.4913 46.2183 8.92604 46.2183 4.30225Z" fill="#162B2C"/>
<path d="M160.584 4.12671C161.462 4.12671 162.281 4.12671 163.218 4.12671C163.218 6.61419 163.218 9.10168 163.218 11.7355C163.481 11.5306 163.628 11.4428 163.745 11.2965C164.71 10.3015 165.647 9.27727 166.612 8.31154C166.876 8.04816 167.315 7.90183 167.666 7.87257C168.398 7.81404 169.158 7.8433 170.124 7.8433C168.72 9.16021 167.432 10.3308 166.144 11.5306C167.725 13.8133 169.129 15.8618 170.622 18.0566C169.539 18.0566 168.632 18.0859 167.725 18.0274C167.52 18.0274 167.286 17.764 167.169 17.5591C166.261 16.2715 165.413 14.9546 164.505 13.6084C163.774 14.1644 163.13 14.6912 163.247 15.7155C163.335 16.4471 163.276 17.208 163.276 17.9981C162.369 17.9981 161.52 17.9981 160.613 17.9981C160.584 13.4036 160.584 8.77977 160.584 4.12671Z" fill="#162B2C"/>
<path d="M95.9973 16.0667C96.0265 16.2423 96.0558 16.3594 96.0265 16.4764C95.9095 17.0324 96.407 17.7641 95.7046 18.086C94.8559 18.4957 93.3635 18.1152 92.8367 17.5299C92.7196 17.3836 92.6026 17.2373 92.4855 17.0617C91.1101 18.3493 89.5005 18.5835 87.7739 18.1445C86.3985 17.7641 85.5791 16.6813 85.5498 15.3351C85.5206 13.8133 86.1351 12.8184 87.5983 12.3501C88.3885 12.0867 89.2079 12.0282 90.0273 11.8526C90.4077 11.7941 90.7882 11.7648 91.1686 11.677C91.7246 11.56 92.2807 11.3551 92.2807 10.6235C92.2807 9.8919 91.6954 9.65778 91.1101 9.56999C89.8224 9.33587 89.0323 9.77484 88.5641 10.9454C87.7447 10.9454 86.9253 10.9454 86.0473 10.9454C86.0473 9.83337 86.3985 8.95543 87.3642 8.42867C89.4127 7.31662 91.5198 7.28735 93.5976 8.25308C94.5926 8.72132 95.0023 9.59925 95.0023 10.682C95.0023 12.116 95.0315 13.55 95.0023 14.9547C95.0315 15.657 95.0901 16.1838 95.9973 16.0667ZM92.2514 13.1403C91.9588 13.1988 91.7246 13.2573 91.4905 13.3158C90.7296 13.4914 89.9688 13.5792 89.2372 13.8426C88.5348 14.0767 88.2422 14.7791 88.3885 15.5107C88.5348 16.1545 89.003 16.5057 89.7932 16.5057C91.6076 16.5057 92.5148 15.2766 92.2514 13.1403Z" fill="#162B2C"/>
<path d="M142.996 10.9454C142.206 10.9454 141.416 10.9454 140.538 10.9454C140.479 9.89186 140.86 9.10172 141.708 8.51643C143.318 7.37511 146.625 7.31658 148.264 8.3701C149.083 8.89687 149.493 9.65774 149.493 10.6235C149.493 12.0867 149.493 13.5792 149.493 15.0424C149.493 16.0081 149.493 16.0081 150.488 16.1252C150.488 16.3886 150.488 16.6812 150.488 16.9739C150.488 18.2323 150.488 18.2323 149.2 18.2323C148.117 18.2323 147.62 17.9981 146.947 17.0909C145.835 18.2323 144.43 18.4956 142.937 18.32C140.86 18.0859 139.748 16.5056 140.128 14.4571C140.304 13.4621 140.918 12.7598 141.855 12.4671C142.733 12.1745 143.64 12.0574 144.547 11.8818C145.045 11.7648 145.601 11.7648 146.04 11.5599C146.361 11.4136 146.742 11.0039 146.742 10.7113C146.742 10.3894 146.391 9.92112 146.069 9.74554C144.81 9.10172 143.581 9.62848 142.996 10.9454ZM146.683 13.1402C145.688 13.3743 144.693 13.5207 143.757 13.8133C142.996 14.0474 142.703 14.7498 142.85 15.5107C142.996 16.1837 143.464 16.5056 144.254 16.5056C146.01 16.5056 146.947 15.2473 146.683 13.1402Z" fill="#162B2C"/>
<path d="M181.362 13.5205C178.816 13.5205 176.387 13.5205 173.987 13.5205C173.724 14.6618 174.309 15.8324 175.333 16.2421C176.504 16.7103 177.762 16.3299 178.348 15.3934C178.435 15.2471 178.64 15.013 178.787 15.013C179.548 14.9837 180.338 14.9837 181.216 14.9837C181.011 16.3592 180.308 17.2956 179.109 17.7931C177.002 18.6418 174.894 18.7003 172.992 17.2956C171.119 15.8909 170.856 13.8424 171.207 11.7061C171.617 9.04304 173.548 7.57981 176.387 7.60907C179.109 7.63834 180.923 9.18936 181.303 11.8232C181.333 12.3499 181.333 12.8767 181.362 13.5205ZM173.929 11.7354C175.48 11.7354 177.001 11.7354 178.494 11.7354C178.318 10.2429 177.382 9.42347 176.007 9.482C174.807 9.54053 173.958 10.477 173.929 11.7354Z" fill="#162B2C"/>
<path d="M63.3087 14.7205C62.6356 15.7447 62.0503 16.7104 61.4065 17.5884C61.2309 17.8225 60.8505 18.0273 60.5578 18.0566C59.797 18.1151 59.0653 18.0859 58.0996 18.0859C59.3287 16.3007 60.47 14.6327 61.6406 12.9353C60.5578 11.2672 59.5043 9.65769 58.363 7.87255C59.3872 7.87255 60.2944 7.84329 61.1724 7.90181C61.348 7.90181 61.5528 8.1652 61.6699 8.34078C62.2259 9.18945 62.7527 10.0674 63.338 11.0039C63.9233 10.0674 64.4207 9.18945 65.006 8.37005C65.1816 8.13593 65.5621 7.93108 65.8547 7.90181C66.5863 7.84329 67.3472 7.87255 68.2544 7.87255C67.7862 8.5749 67.4057 9.16019 67.0253 9.77474C66.44 10.6527 65.884 11.5306 65.2987 12.3793C65.0353 12.7597 65.0646 13.0231 65.328 13.4035C66.3815 14.896 67.4057 16.4178 68.547 18.0859C67.4643 18.0859 66.4985 18.1151 65.5621 18.0566C65.4157 18.0566 65.2402 17.7932 65.1231 17.6176C64.5085 16.6812 63.9525 15.7447 63.3087 14.7205Z" fill="#162B2C"/>
<path d="M107.206 14.6328C107.118 15.9204 106.562 16.8569 105.538 17.53C102.026 19.7833 97.5483 17.6763 97.2264 13.55C97.1679 12.7013 97.2264 11.7941 97.4605 10.9747C98.4555 7.55077 103.665 6.32166 106.152 8.9262C106.62 9.4237 106.796 10.2431 107.118 10.9162C107.147 10.9455 107.089 11.004 107.059 11.1503C106.269 11.1503 105.45 11.1796 104.63 11.121C104.513 11.121 104.308 10.9162 104.25 10.7699C103.811 9.30664 101.382 9.24811 100.533 10.5943C99.8017 11.7356 99.7724 14.2231 100.533 15.3351C101.031 16.0667 101.733 16.3594 102.611 16.3009C103.46 16.2423 104.016 15.8326 104.308 15.0425C104.367 14.8669 104.572 14.662 104.718 14.662C105.538 14.6328 106.357 14.6328 107.206 14.6328Z" fill="#162B2C"/>
<path d="M184.113 5.03394C185.078 5.03394 185.898 5.03394 186.834 5.03394C186.834 5.9704 186.834 6.8776 186.834 7.8726C187.595 7.8726 188.268 7.8726 188.971 7.8726C188.971 8.48715 188.971 9.04318 188.971 9.65773C188.268 9.65773 187.595 9.65773 186.834 9.65773C186.834 11.0917 186.834 12.4379 186.834 13.784C186.834 14.1352 186.834 14.5156 186.834 14.8668C186.834 16.0081 187.098 16.2423 188.21 16.1837C188.415 16.1837 188.649 16.1545 188.941 16.1252C188.941 16.7105 188.971 17.2665 188.912 17.8225C188.883 17.9689 188.619 18.2322 188.444 18.2322C187.537 18.2615 186.6 18.32 185.693 18.203C184.815 18.0859 184.259 17.4714 184.171 16.5934C184.083 15.5984 184.083 14.5742 184.083 13.5499C184.083 12.2915 184.083 11.0332 184.083 9.74552C183.527 9.71626 183.03 9.687 182.474 9.65773C182.474 9.07244 182.474 8.54568 182.474 7.96039C183.001 7.93112 183.498 7.90186 184.054 7.8726C184.113 6.8776 184.113 5.99967 184.113 5.03394Z" fill="#162B2C"/>
<path d="M75.8632 9.65773C75.1609 9.65773 74.4878 9.65773 73.7562 9.65773C73.7562 11.0332 73.7562 12.3501 73.7562 13.667C73.7562 14.0181 73.7562 14.3401 73.7562 14.6912C73.7562 16.0374 74.0196 16.2423 75.3657 16.1252C75.5121 16.1252 75.6291 16.0959 75.8632 16.0667C75.8632 16.6227 75.9218 17.1202 75.834 17.6177C75.8047 17.8225 75.5413 18.1444 75.3657 18.1737C74.6634 18.2615 73.961 18.32 73.2587 18.2615C71.6784 18.1152 71.0639 17.4714 71.0053 15.8618C70.9761 14.4571 71.0053 13.0524 71.0053 11.6477C71.0053 11.0039 71.0053 10.3601 71.0053 9.65773C70.4493 9.65773 69.9811 9.65773 69.425 9.65773C69.425 9.04318 69.425 8.51642 69.425 7.8726C69.8933 7.8726 70.3908 7.8726 70.9761 7.8726C70.9761 6.8776 70.9761 5.9704 70.9761 5.03394C71.9418 5.03394 72.7905 5.03394 73.7269 5.03394C73.7269 5.94114 73.7269 6.84834 73.7269 7.84333C74.4878 7.84333 75.1609 7.84333 75.8632 7.84333C75.8632 8.48715 75.8632 9.04318 75.8632 9.65773Z" fill="#162B2C"/>
<path d="M112.824 5.03394C112.824 5.53143 112.824 5.99967 112.824 6.43863C112.824 6.8776 112.824 7.31657 112.824 7.81407C113.556 7.81407 114.229 7.81407 114.931 7.81407C114.931 8.42862 114.931 8.98465 114.931 9.5992C114.258 9.5992 113.614 9.5992 112.824 9.5992C112.824 10.1552 112.824 10.6235 112.824 11.0917C112.824 12.3208 112.824 13.5499 112.824 14.779C112.824 15.9496 113.117 16.213 114.317 16.1252C114.492 16.0959 114.697 16.0959 114.961 16.0667C114.961 16.6227 115.019 17.1202 114.931 17.6177C114.902 17.8225 114.639 18.1444 114.463 18.1737C113.585 18.2322 112.649 18.2908 111.771 18.1737C110.659 18.0274 110.161 17.325 110.132 16.1252C110.103 14.2523 110.103 12.4086 110.103 10.5357C110.103 10.2723 110.103 10.0089 110.103 9.687C109.547 9.65773 109.049 9.62847 108.493 9.62847C108.493 9.07244 108.493 8.51642 108.493 7.96039C108.61 7.93112 108.698 7.90186 108.786 7.90186C110.103 7.84333 110.103 7.84333 110.103 6.52643C110.103 6.05819 110.103 5.5607 110.103 5.0632C111.01 5.03394 111.859 5.03394 112.824 5.03394Z" fill="#162B2C"/>
<path d="M158.682 10.3015C158.214 10.3015 157.833 10.2722 157.423 10.3015C155.785 10.4478 154.907 11.355 154.848 12.9938C154.819 14.4278 154.848 15.8325 154.848 17.2664C154.848 17.5005 154.848 17.7347 154.848 18.0273C153.912 18.0273 153.063 18.0273 152.156 18.0273C152.156 14.6619 152.156 11.2965 152.156 7.90177C153.004 7.90177 153.824 7.90177 154.702 7.90177C154.731 8.37001 154.731 8.77971 154.76 9.33574C155.082 8.98456 155.287 8.66265 155.58 8.42854C155.96 8.16515 156.399 7.90177 156.867 7.75545C158.418 7.28722 158.682 7.49207 158.682 9.04309C158.682 9.48206 158.682 9.8625 158.682 10.3015Z" fill="#162B2C"/>
<path d="M78.0581 7.90193C78.9068 7.90193 79.7262 7.90193 80.6041 7.90193C80.6041 8.3409 80.6041 8.77987 80.6041 9.42369C80.8675 9.13104 80.9846 8.95546 81.1016 8.80913C81.8918 7.8434 82.9745 7.55076 84.1744 7.63855C84.3207 7.63855 84.5548 7.87267 84.5548 8.01899C84.5841 8.7506 84.5841 9.51148 84.5841 10.3309C84.0573 10.3309 83.6184 10.2724 83.1501 10.3309C81.6576 10.5065 80.809 11.3844 80.7797 12.8769C80.7212 14.3401 80.7504 15.7741 80.7504 17.2373C80.7504 17.5007 80.7504 17.7641 80.7504 18.0567C79.814 18.0567 78.9653 18.0567 78.0581 18.0567C78.0581 14.6913 78.0581 11.3551 78.0581 7.90193Z" fill="#162B2C"/>
</g>
<path d="M47.1082 32.497H47.9689V27.0856H48.0463L51.8328 32.497H52.6791V25.5188H51.8183V30.9495H51.7409L47.9544 25.5188H47.1082V32.497Z" fill="#6F8A6A"/>
<path d="M55.7838 32.5889C56.485 32.5889 57.0314 32.2842 57.3603 31.7281H57.4376V32.497H58.2791V28.9281C58.2791 27.8448 57.5682 27.192 56.2964 27.192C55.1841 27.192 54.391 27.7433 54.2556 28.5606L54.2508 28.5896H55.0922L55.0971 28.5751C55.2325 28.1688 55.6435 27.9367 56.2674 27.9367C57.0459 27.9367 57.4376 28.2849 57.4376 28.9281V29.402L55.9433 29.4939C54.7295 29.5664 54.0428 30.1032 54.0428 31.0317V31.0414C54.0428 31.9892 54.7924 32.5889 55.7838 32.5889ZM54.9036 31.022V31.0124C54.9036 30.4949 55.2518 30.2144 56.0449 30.1661L57.4376 30.079V30.5529C57.4376 31.2977 56.8138 31.8586 55.9579 31.8586C55.3534 31.8586 54.9036 31.5491 54.9036 31.022Z" fill="#6F8A6A"/>
<path d="M61.6691 32.5357C61.8335 32.5357 61.9931 32.5163 62.1575 32.4873V31.7716C62.0027 31.7861 61.9205 31.7909 61.7706 31.7909C61.229 31.7909 61.0162 31.5443 61.0162 30.9301V27.9802H62.1575V27.2839H61.0162V25.9347H60.1458V27.2839H59.3236V27.9802H60.1458V31.1429C60.1458 32.1391 60.5955 32.5357 61.6691 32.5357Z" fill="#6F8A6A"/>
<path d="M65.1606 32.5889C65.9247 32.5889 66.4518 32.2745 66.7081 31.7184H66.7854V32.497H67.6269V27.2839H66.7854V30.3692C66.7854 31.2832 66.297 31.8441 65.3782 31.8441C64.5464 31.8441 64.2079 31.3944 64.2079 30.4562V27.2839H63.3665V30.6593C63.3665 31.8925 63.9758 32.5889 65.1606 32.5889Z" fill="#6F8A6A"/>
<path d="M69.1986 32.497H70.04V29.2666C70.04 28.5025 70.6106 27.9948 71.4134 27.9948C71.5972 27.9948 71.7568 28.0141 71.9308 28.0431V27.2258C71.8486 27.2113 71.6697 27.192 71.5101 27.192C70.8041 27.192 70.3157 27.5112 70.1174 28.0576H70.04V27.2839H69.1986V32.497Z" fill="#6F8A6A"/>
<path d="M74.9533 32.5889C76.1816 32.5889 76.9263 31.8925 77.1053 31.1865L77.1149 31.1478H76.2735L76.2541 31.1913C76.1139 31.5056 75.6787 31.8393 74.9726 31.8393C74.0441 31.8393 73.4493 31.2106 73.4251 30.1322H77.1778V29.8034C77.1778 28.2462 76.317 27.192 74.9001 27.192C73.4832 27.192 72.5644 28.2946 72.5644 29.9049V29.9098C72.5644 31.5443 73.4638 32.5889 74.9533 32.5889ZM74.8953 27.9416C75.6642 27.9416 76.2348 28.43 76.3218 29.46H73.4396C73.5315 28.4687 74.1215 27.9416 74.8953 27.9416Z" fill="#6F8A6A"/>
<path d="M83.0679 32.5889C84.2527 32.5889 85.157 31.9457 85.157 31.0172V31.0075C85.157 30.2628 84.6831 29.8372 83.7014 29.6003L82.8987 29.4068C82.2845 29.2569 82.0234 29.0345 82.0234 28.6815V28.6718C82.0234 28.2124 82.478 27.8932 83.0969 27.8932C83.7256 27.8932 84.1318 28.1785 84.2431 28.5896H85.07C84.9539 27.7385 84.1947 27.192 83.1018 27.192C81.9944 27.192 81.1626 27.8448 81.1626 28.7105V28.7153C81.1626 29.4649 81.6027 29.8904 82.5795 30.1226L83.3871 30.316C84.0303 30.4707 84.2963 30.7174 84.2963 31.0704V31.0801C84.2963 31.554 83.7982 31.8877 83.0969 31.8877C82.4296 31.8877 82.0137 31.6023 81.8735 31.1671H81.0127C81.1094 32.0279 81.9073 32.5889 83.0679 32.5889Z" fill="#6F8A6A"/>
<path d="M86.5111 32.497H87.3525V29.4117C87.3525 28.4977 87.8797 27.9367 88.7114 27.9367C89.5432 27.9367 89.9301 28.3865 89.9301 29.3246V32.497H90.7715V29.1215C90.7715 27.8835 90.1187 27.192 88.9484 27.192C88.1795 27.192 87.6911 27.516 87.4299 28.0673H87.3525V25.2141H86.5111V32.497Z" fill="#6F8A6A"/>
<path d="M94.4371 32.5889C95.9218 32.5889 96.8406 31.5637 96.8406 29.8953V29.8856C96.8406 28.2124 95.9218 27.192 94.4371 27.192C92.9525 27.192 92.0337 28.2124 92.0337 29.8856V29.8953C92.0337 31.5637 92.9525 32.5889 94.4371 32.5889ZM94.4371 31.8441C93.4506 31.8441 92.8945 31.1236 92.8945 29.8953V29.8856C92.8945 28.6524 93.4506 27.9367 94.4371 27.9367C95.4237 27.9367 95.9798 28.6524 95.9798 29.8856V29.8953C95.9798 31.1236 95.4237 31.8441 94.4371 31.8441Z" fill="#6F8A6A"/>
<path d="M98.1463 34.2379H98.9877V31.6749H99.0651C99.3504 32.231 99.9743 32.5889 100.69 32.5889C102.015 32.5889 102.876 31.5298 102.876 29.8953V29.8856C102.876 28.2607 102.01 27.192 100.69 27.192C99.9646 27.192 99.3843 27.5353 99.0651 28.1157H98.9877V27.2839H98.1463V34.2379ZM100.497 31.8441C99.5487 31.8441 98.9684 31.0994 98.9684 29.8953V29.8856C98.9684 28.6815 99.5487 27.9367 100.497 27.9367C101.449 27.9367 102.015 28.6718 102.015 29.8856V29.8953C102.015 31.1091 101.449 31.8441 100.497 31.8441Z" fill="#6F8A6A"/>
<defs>
<clipPath id="clip0">
<rect width="13.2052" height="17.607" fill="white" transform="translate(11.5547 12.7649)"/>
</clipPath>
<clipPath id="clip1">
<rect width="142.782" height="14.3396" fill="white" transform="translate(46.2183 4.12671)"/>
</clipPath>
</defs>
</svg>
